<svg width="38" height="38" viewBox="0 0 38 38" fill="none" xmlns="http://www.w3.org/2000/svg">
<g clip-path="url(#clip0_1136_4198)">
<path d="M8.4216 22.9674L7.09888 27.9053L2.26434 28.0076C0.819524 25.3278 0 22.2617 0 19.0035C0 15.8529 0.766235 12.8818 2.12444 10.2656H2.12548L6.42957 11.0547L8.31502 15.333C7.9204 16.4834 7.70532 17.7184 7.70532 19.0035C7.70547 20.3983 7.95811 21.7346 8.4216 22.9674Z" fill="#FBBB00"/>
<path d="M37.6683 15.4531C37.8865 16.6025 38.0003 17.7895 38.0003 19.0026C38.0003 20.3628 37.8573 21.6897 37.5848 22.9696C36.6599 27.325 34.2431 31.1281 30.8952 33.8194L30.8941 33.8184L25.4729 33.5418L24.7056 28.7521C26.9271 27.4493 28.6633 25.4104 29.5778 22.9696H19.418V15.4531H29.726H37.6683Z" fill="#518EF8"/>
<path d="M30.8951 33.8206L30.8961 33.8217C27.6401 36.4389 23.5038 38.0048 19.0013 38.0048C11.7656 38.0048 5.47477 33.9605 2.26562 28.0089L8.42289 22.9688C10.0274 27.251 14.1584 30.2994 19.0013 30.2994C21.0829 30.2994 23.0331 29.7367 24.7065 28.7543L30.8951 33.8206Z" fill="#28B446"/>
<path d="M31.1282 4.37416L24.973 9.41331C23.2411 8.33076 21.1939 7.70539 19.0006 7.70539C14.048 7.70539 9.83982 10.8936 8.31566 15.3294L2.12604 10.2621H2.125C5.28716 4.16538 11.6574 0 19.0006 0C23.6107 0 27.8376 1.64216 31.1282 4.37416Z" fill="#F14336"/>
</g>
<defs>
<clipPath id="clip0_1136_4198">
<rect width="38" height="38" fill="white"/>
</clipPath>
</defs>
</svg>
